<svg width="43" height="35" viewBox="0 0 43 35" fill="none" xmlns="http://www.w3.org/2000/svg">
<path d="M34.2664 8.27957H27.6649V4.97652C27.6649 2.19797 24.9387 0 21.5251 0H21.4234C18.0097 0 15.181 2.19797 15.181 4.97652V8.27957H8.83625C8.19788 8.27957 7.62901 8.70082 7.62901 9.22043V34.0591C7.62901 34.5787 8.19788 35 8.83625 35H34.2664C34.9047 35 35.371 34.5787 35.371 34.0591V9.22043C35.371 8.70082 34.9047 8.27957 34.2664 8.27957ZM17.4928 4.97652C17.4928 3.23543 19.2843 1.88172 21.4234 1.88172H21.5251C23.6642 1.88172 25.353 3.23543 25.353 4.97652V8.27957H17.4928V4.97652Z" fill="#E5A1A4"/>
</svg>
